<?xml version="1.0" standalone="no"?>
<!DOCTYPE svg PUBLIC "-//W3C//DTD SVG 1.1//EN" "http://www.w3.org/Graphics/SVG/1.1/DTD/svg11.dtd" >
<svg xmlns="http://www.w3.org/2000/svg" xmlns:xlink="http://www.w3.org/1999/xlink" version="1.1">
<metadata></metadata>
<defs>
<font id="daredevilregular" horiz-adv-x="2564" >
<font-face units-per-em="2048" ascent="1638" descent="-410" />
<missing-glyph horiz-adv-x="512" />
<glyph horiz-adv-x="0" />
<glyph horiz-adv-x="682" />
<glyph unicode=" "  horiz-adv-x="512" />
<glyph unicode="&#x09;" horiz-adv-x="512" />
<glyph unicode="&#xa0;" horiz-adv-x="512" />
<glyph unicode="A" horiz-adv-x="2130" d="M-342 2236h2019l352 -235v-1997h-709v1020l-591 -167v-853l-710 -590v2685zM729 1120l591 166v851h-591v-1017z" />
<glyph unicode="B" horiz-adv-x="2145" d="M-328 2236h2019l352 -235v-476l-617 -174h617v-1053l-440 -294h-861l-708 -590v2685zM743 267h683v925l-683 -192v-733zM743 1342l591 166v629h-591v-795z" />
<glyph unicode="C" horiz-adv-x="2449" d="M8 298v1701l354 237h1971l-421 -159h-1107v-1810h1528v-263h-1885z" />
<glyph unicode="D" horiz-adv-x="2520" d="M-346 2236h2391l355 -237v-1701l-441 -294h-1146l-797 -664v2759zM813 267h789v1870h-789v-1870z" />
<glyph unicode="E" horiz-adv-x="1904" d="M-329 2236h2020v-159h-948v-786l619 174v-262l-619 -174v-762h708l363 137v-137v-263h-1781v2095z" />
<glyph unicode="F" horiz-adv-x="1776" d="M-327 2236h2019v-159h-948v-786l619 174v-262l-619 -174v-1025l-709 -664v664v2095z" />
<glyph unicode="G" horiz-adv-x="2479" d="M36 298v1701l354 237h1971l-421 -159h-1107v-1810h942v782l-587 -165v262l1173 331v-2137l-586 549v115h-1299z" />
<glyph unicode="H" horiz-adv-x="2061" d="M-320 2236h1072v-945l586 165v780h625v-2820l-625 588v1190l-586 -165v-1025h-710v2095z" />
<glyph unicode="I" horiz-adv-x="695" d="M-208 2236h244h626v-2820l-626 588v2095z" />
<glyph unicode="J" horiz-adv-x="724" d="M-395 -825l459 374v2550l-244 137h870v-2656l-1085 -883v478z" />
<glyph unicode="K" d="M-278 2236h1072v-99v-936l966 1035h682l-994 -1073l994 -1159v-815l-1648 1921v-1106h-710v2095z" />
<glyph unicode="L" horiz-adv-x="1862" d="M77 4v2821l626 -589v-1969h708l363 137v-137v-263h-1697z" />
<glyph unicode="M" horiz-adv-x="3556" d="M65 4v2820l1661 -1561l889 836l-244 137h390h626v-2232h-626v1693l-723 -679v-48v-966h-625v966v48l-722 679v-1693h-626z" />
<glyph unicode="N" horiz-adv-x="2123" d="M49 4v2820l1348 -1267v542l-245 137h870v-1266v-966h-625v1014l-723 679v-1693h-625z" />
<glyph unicode="O" horiz-adv-x="2530" d="M27 298v1701l355 237h1674l354 -237v-1701l-440 -294h-1503zM824 267h789v1870h-789v-1870z" />
<glyph unicode="P" horiz-adv-x="2134" d="M-339 2236h2020l352 -235v-697l-1182 -333l-118 139v-1106l-710 -659v2754zM733 1201l590 166v770h-590v-936z" />
<glyph unicode="Q" horiz-adv-x="2727" d="M30 298v1701l354 237h1674l355 -237v-1701l185 -183v-698l-625 587h-1503zM827 267h789v1870h-789v-1870z" />
<glyph unicode="R" horiz-adv-x="2505" d="M-333 2236h2019l352 -235v-697l-618 -174l966 -1126v-815l-1648 1921v-1106h-710v2095zM738 1201l590 166v770h-590v-936z" />
<glyph unicode="S" horiz-adv-x="2494" d="M51 4v263h1528v855l-1528 -431v1308l354 237h1971l-704 -159h-824v-899l1528 431v-656v-655l-440 -294h-1885z" />
<glyph unicode="T" horiz-adv-x="2785" d="M27 2236h2626v-137h-928v-2095l-626 -587v2682h-709z" />
<glyph unicode="U" horiz-adv-x="2560" d="M-188 2236h1041v-1969h789v1969h797v-1938l-440 -294h-1503l-440 294v1801z" />
<glyph unicode="V" horiz-adv-x="2150" d="M-169 2236h869v-1693l723 679v877l-245 137h870v-965l-1973 -1854v2682z" />
<glyph unicode="W" horiz-adv-x="3584" d="M-151 2236h869v-1693l723 679v877l-245 137h870v-1693l723 679v877l-245 137h870v-965l-1973 -1854v1266l-1348 -1266v2682z" />
<glyph unicode="X" horiz-adv-x="2526" d="M-278 2236h900l624 -720l587 720h573l-865 -1061l865 -989v-769l-1189 1360l-630 -773h-574l906 1112l-861 983z" />
<glyph unicode="Y" horiz-adv-x="2166" d="M-154 2236h870v-1092l722 679v276l-245 137h870v-364l-1347 -1267v-601l-626 -587v819v521v521.5v820.5z" />
<glyph unicode="Z" horiz-adv-x="2512" d="M68 298l1528 1779h-1107l-421 159h1970l355 -237l-1528 -1732h1528v-263h-1885z" />
<glyph unicode="a" horiz-adv-x="2206" d="M-271 2236h2020l352 -235v-1997h-710v1020l-590 -167v-853h-709v2095zM801 1120l590 166v851h-590v-1017z" />
<glyph unicode="b" horiz-adv-x="2193" d="M-283 2236h2020l352 -235v-476l-618 -174h618v-1053l-441 -294h-1569v2095zM789 267h682v925l-682 -192v-733zM789 1342l590 166v629h-590v-795z" />
<glyph unicode="c" horiz-adv-x="2510" d="M66 298v1701l355 237h1970l-421 -159h-1107v-1810h1528v-263h-1885z" />
<glyph unicode="d" d="M-303 2236h2391l354 -237v-1701l-440 -294h-1943v2095zM856 267h789v1870h-789v-1870z" />
<glyph unicode="e" horiz-adv-x="1911" d="M-322 2236h2019v-159h-948v-786l619 174v-262l-619 -174v-762h708l363 137v-137v-263h-1780v2095z" />
<glyph unicode="f" horiz-adv-x="1787" d="M-317 2236h2019v-159h-948v-786l619 174v-262l-619 -174v-1025h-709v2095z" />
<glyph unicode="g" horiz-adv-x="2493" d="M50 298v1701l355 237h1970l-421 -159h-1107v-1810h942v782l-586 -165v262l1172 331v-1473h-1885z" />
<glyph unicode="h" horiz-adv-x="2050" d="M-330 2236h1071v-945l586 165v780h626v-2232h-626v1190l-586 -165v-1025h-709v2095z" />
<glyph unicode="i" horiz-adv-x="720" d="M-183 2236h869v-2232h-625v2095z" />
<glyph unicode="j" horiz-adv-x="730" d="M-1014 -183h625v-268h459v2550l-243 137h869v-2656l-440 -294h-830l-440 294v237z" />
<glyph unicode="k" horiz-adv-x="2557" d="M-284 2236h1072v-99v-936l965 1035h683l-994 -1073l994 -1159h-700l-948 1106v-1106h-710v2095z" />
<glyph unicode="l" horiz-adv-x="1890" d="M-141 2236h869v-1969h709l363 137v-137v-263h-1697v2095z" />
<glyph unicode="m" horiz-adv-x="3562" d="M-279 2236h3320l352 -235v-1997h-710v2133h-590v-2133h-710v2133h-590v-2133h-710v2095z" />
<glyph unicode="n" horiz-adv-x="2179" d="M-296 2236h2020l352 -235v-1997h-710v2133h-590v-2133h-710v2095z" />
<glyph unicode="o" horiz-adv-x="2562" d="M56 298v1701l355 237h1674l355 -237v-1701l-441 -294h-1502zM853 267h789v1870h-789v-1870z" />
<glyph unicode="p" horiz-adv-x="2156" d="M-318 2236h2020l352 -235v-697l-1300 -366v-934h-710v2095zM754 1201l590 166v770h-590v-936z" />
<glyph unicode="q" horiz-adv-x="2553" d="M49 298v1701l354 237h1674l355 -237v-1701l-441 -294h-1502zM846 267h169v632h450v-632h170v1870h-789v-1870z" />
<glyph unicode="r" horiz-adv-x="2543" d="M-298 2236h2020l351 -235v-697l-617 -174l966 -1126h-700l-948 1106v-1106h-710v2095zM774 1201l590 166v770h-590v-936z" />
<glyph unicode="s" horiz-adv-x="2510" d="M65 4v263h1529v855l-1529 -431v1308l355 237h1971l-704 -159h-825v-899l1529 431v-656v-655l-441 -294h-1885z" />
<glyph unicode="t" horiz-adv-x="2808" d="M49 2236h2626v-137h-928v-2095h-626v2095h-709z" />
<glyph unicode="u" horiz-adv-x="2571" d="M-178 2236h1041v-1969h789v1969h797v-1938l-440 -294h-1503l-440 294v1801z" />
<glyph unicode="v" horiz-adv-x="2541" d="M-208 2236h1041l395 -1969l394 1969h798l-441 -2232h-1503l-440 2095z" />
<glyph unicode="w" horiz-adv-x="3518" d="M42 4v2232h709v-1969h591v1969h709v-1969h591v1969h709v-1997l-351 -235h-2958z" />
<glyph unicode="x" horiz-adv-x="2890" d="M68 4l1051 1112l-733 983l-318 137h1042l468 -636l601 636h574l-924 -977l924 -1255h-804l-577 773l-731 -773h-573z" />
<glyph unicode="y" horiz-adv-x="2496" d="M-306 2236h1041l468 -636l602 636h573l-915 -977v-1255h-709v1114l-743 981z" />
<glyph unicode="z" horiz-adv-x="2490" d="M47 298v656l1528 430v693h-824l-704 159h1971l354 -237v-653l-1528 -430v-649h1528v-263h-1885z" />
<glyph unicode="&#x2000;" horiz-adv-x="1412" />
<glyph unicode="&#x2001;" horiz-adv-x="2825" />
<glyph unicode="&#x2002;" horiz-adv-x="1412" />
<glyph unicode="&#x2003;" horiz-adv-x="2825" />
<glyph unicode="&#x2004;" horiz-adv-x="941" />
<glyph unicode="&#x2005;" horiz-adv-x="706" />
<glyph unicode="&#x2006;" horiz-adv-x="470" />
<glyph unicode="&#x2007;" horiz-adv-x="470" />
<glyph unicode="&#x2008;" horiz-adv-x="353" />
<glyph unicode="&#x2009;" horiz-adv-x="565" />
<glyph unicode="&#x200a;" horiz-adv-x="156" />
<glyph unicode="&#x202f;" horiz-adv-x="565" />
<glyph unicode="&#x205f;" horiz-adv-x="706" />
<glyph unicode="&#x25fc;" horiz-adv-x="2235" d="M0 0v2235h2235v-2235h-2235z" />
</font>
</defs>
</svg>
